<svg xmlns="http://www.w3.org/2000/svg" width="84" height="84" fill="none"><rect x="1" y="1" width="82" height="82" rx="9" stroke="#EEBE5C" stroke-width="2"/><path d="M61.85 37.442a21.598 21.598 0 0 0-15.77-12.744l3.135-5.016-3.18-1.988-4.137 6.62A21.569 21.569 0 0 0 22.15 37.442a8.435 8.435 0 0 0 0 16.867 21.57 21.57 0 0 0 39.7 0 8.435 8.435 0 0 0 0-16.867zm3.182 11.716a4.66 4.66 0 0 1-3.253 1.402l-2.429.046-.95 2.235a17.82 17.82 0 0 1-32.8 0l-.95-2.235-2.43-.046a4.685 4.685 0 0 1 0-9.369l2.43-.046.95-2.235a17.82 17.82 0 0 1 32.8 0l.95 2.235 2.43.046a4.685 4.685 0 0 1 3.252 7.967z" fill="#EEBE5C"/><path d="M31.688 41.188h4.687v4.687h-4.688v-4.688zm15.937 0h4.688v4.687h-4.688v-4.688zM42 59a9.376 9.376 0 0 0 9.375-9.375h-18.75A9.376 9.376 0 0 0 42 59z" fill="#EEBE5C"/></svg>