<svg xmlns="http://www.w3.org/2000/svg" width="18" height="24" fill="none"><path d="M8.999 11.714a3.645 3.645 0 0 0 3.647-3.642 3.645 3.645 0 0 0-3.647-3.643 3.645 3.645 0 0 0-3.647 3.643 3.645 3.645 0 0 0 3.647 3.642z" stroke="#082A1E" stroke-linecap="round" stroke-linejoin="round"/><path d="M9 23l-.424.265h0v-.001l-.003-.004-.009-.014-.034-.054-.13-.211a124.747 124.747 0 0 1-2.098-3.565c-1.281-2.265-2.865-5.23-4.056-8.005C-.264 5.562 3.942.5 9 .5s9.265 5.062 6.754 10.912c-1.19 2.774-2.775 5.739-4.057 8.004a125.09 125.09 0 0 1-2.227 3.776l-.034.054-.01.014-.001.004h0l-.001.001L9 23zm0 0l.424.265a.5.5 0 0 1-.848 0L9 23z" stroke="#082A1E" stroke-linecap="round" stroke-linejoin="round"/></svg>