<svg xmlns="http://www.w3.org/2000/svg" width="21" height="15" fill="none"><path fill-rule="evenodd" clip-rule="evenodd" d="M19 0H2a2 2 0 0 0-2 2v10.996a2 2 0 0 0 2 2h17a2 2 0 0 0 2-2V2a2 2 0 0 0-2-2zM1 2a1 1 0 0 1 1-1h17a1 1 0 0 1 1 1v.229l-9.54 5.416L1 2.23V2zm0 1.382v9.614c0 .085.01.168.031.248l6.12-6.342L1 3.382zm1 10.614c-.093 0-.184-.013-.27-.037l6.315-6.544 2.165 1.239.248.142.248-.141 1.817-1.032 6.15 6.373H2zm17.514-.142a1 1 0 0 0 .487-.858V3.379l-6.58 3.735 6.306 6.535-.213.206z" fill="#292929"/></svg>