<svg xmlns="http://www.w3.org/2000/svg" width="60" height="60" fill="none"><path d="M52.683 60H7.473a7.466 7.466 0 0 1-5.295-2.163A7.318 7.318 0 0 1 0 52.604V7.395C0 3.318 3.318 0 7.396 0h45.208C56.682 0 60 3.318 60 7.395v45.21C60 56.681 56.718 60 52.683 60zM7.396 1.758a5.644 5.644 0 0 0-5.638 5.637v45.21a5.57 5.57 0 0 0 1.658 3.983 5.718 5.718 0 0 0 4.058 1.654h45.209c3.065 0 5.56-2.529 5.56-5.637V7.395a5.644 5.644 0 0 0-5.639-5.637H7.396z" fill="#EEBE5C"/><path d="M52.604 56.016H7.396a3.415 3.415 0 0 1-3.412-3.412v-4.612a.879.879 0 1 1 1.758 0v4.612c0 .912.742 1.654 1.654 1.654h45.208c.912 0 1.654-.742 1.654-1.654V16.132a.879.879 0 1 1 1.758 0v36.472a3.415 3.415 0 0 1-3.412 3.412zM4.863 44.762a.879.879 0 0 1-.879-.879V7.396a3.416 3.416 0 0 1 3.412-3.412h45.208a3.415 3.415 0 0 1 3.412 3.412v4.627a.879.879 0 1 1-1.758 0V7.396c0-.912-.742-1.654-1.654-1.654H7.396c-.912 0-1.654.742-1.654 1.654v36.487a.879.879 0 0 1-.879.879z" fill="#EEBE5C"/><path d="M34.81 48.647h-9.62a3.081 3.081 0 0 1-3.079-3.078v-1.648a3.081 3.081 0 0 1 3.078-3.078.212.212 0 0 0 .212-.212V29.415a3.083 3.083 0 0 1-2.199-2.95V25.9a3.081 3.081 0 0 1 3.078-3.078h5.237a3.081 3.081 0 0 1 3.078 3.078v14.662a.846.846 0 0 1 .002.068c0 .117.096.212.212.212a3.081 3.081 0 0 1 3.078 3.078v1.648a3.081 3.081 0 0 1-3.077 3.078zm-8.53-24.066c-.728 0-1.32.592-1.32 1.32v.564c0 .728.592 1.32 1.32 1.32a.88.88 0 0 1 .88.879v11.967c0 1.086-.885 1.97-1.97 1.97a1.32 1.32 0 0 0-1.32 1.32v1.648c0 .728.591 1.32 1.32 1.32h9.62c.727 0 1.32-.592 1.32-1.32v-1.648c0-.728-.593-1.32-1.32-1.32a1.973 1.973 0 0 1-1.973-1.969V25.901c0-.728-.592-1.32-1.32-1.32H26.28zm3.204-3.361a4.94 4.94 0 0 1-4.933-4.934 4.94 4.94 0 0 1 4.933-4.934 4.94 4.94 0 0 1 4.934 4.934 4.94 4.94 0 0 1-4.934 4.933zm0-8.11a3.18 3.18 0 0 0-3.175 3.176 3.18 3.18 0 0 0 3.175 3.176 3.18 3.18 0 0 0 3.176-3.176 3.18 3.18 0 0 0-3.176-3.176z" fill="#EEBE5C"/></svg>