<svg xmlns="http://www.w3.org/2000/svg" width="60" height="64" fill="none"><g clip-path="url(#clip0_2_845)" fill="#EEBE5C"><path d="M57.5 0h-55C1.2 0 .2 1 .2 2.2v53.1c0 1.2 1 2.2 2.3 2.2h12.2c.5 0 1-.4 1-.9s-.5-.9-1-.9H2.5c-.2 0-.4-.2-.4-.4V2.2c0-.2.2-.3.4-.3h55c.2 0 .4.1.4.3v53.1c0 .2-.2.4-.4.4h-5.6c-.5 0-1 .4-1 .9v5.2c0 .3-.3.4-.6.2L44 55.9c-.2-.1-.4-.2-.7-.2H19.9c-1.3 0-1.3 1.8 0 1.8h23l6.1 5.9c1.4 1.3 3.9.3 3.9-1.6v-4.3h4.6c1.3 0 2.3-1 2.3-2.2V2.2c0-1.2-1-2.2-2.3-2.2z"/><path d="M29.8 42.8c-2.5 0-4.5 1.9-4.5 4.3.3 5.6 8.7 5.6 8.9 0 0-2.4-2-4.3-4.4-4.3zm0 6.7c-1.4 0-2.5-1.1-2.5-2.4.1-3.2 4.8-3.2 4.9 0 0 1.3-1.1 2.4-2.4 2.4zM24 20c1.4-6.5 11-6 11.5.7.1 1.4-.5 2.9-1.5 4.1-1.1 1.1-2.7 1.8-4.2 1.8-2.4 0-4.5 1.9-4.5 4.2v8c0 1.3 1.1 2.3 2.3 2.3h4.2c1.3 0 2.3-1 2.3-2.3v-4.1c0-.2.1-.3.3-.4 6-1.8 10.3-8 9.9-14.1-.1-2.4-.9-4.7-2.2-6.7-.7-1-2.3 0-1.6 1 4.4 6.5.8 15.6-6.7 18-1 .4-1.6 1.2-1.6 2.2v4.1c0 .2-.2.4-.4.4h-4.2c-.2 0-.3-.2-.3-.4v-8c0-1.3 1.2-2.3 2.5-2.4 4.2.1 8-3.8 7.7-7.8-.8-8.9-13.6-9.6-15.4-.9 0 .2-.2.3-.4.3h-4.2c-.2 0-.3-.1-.3-.4 1-9.1 12.4-14.1 20-8.5 1 .7 2.2-.8 1.2-1.5-8.8-6.5-22-.8-23.2 9.8-.1 1.3 1 2.5 2.3 2.5h4.2c1.2 0 2.1-.8 2.3-1.9zM6.5 38.3c-.5 0-1 .4-1 .9v11.3c0 .5.5 1 1 1s1-.5 1-1V39.2c0-.5-.5-.9-1-.9zm48-25.7V5.9c-.1-1.2-1.9-1.2-1.9 0v6.7c0 .5.4.9.9.9.6 0 1-.4 1-.9zm-47 20c-.1-1.2-1.9-1.2-2 0v2.5c0 .6.5 1 1 1s1-.4 1-1v-2.5z"/></g></svg>