<svg xmlns="http://www.w3.org/2000/svg" width="84" height="84" fill="none"><rect x="1" y="1" width="82" height="82" rx="9" stroke="#EEBE5C" stroke-width="2"/><path d="M27.555 37.135c0-.277-.098-.488-.293-.635-.196-.15-.547-.306-1.055-.469a7.604 7.604 0 0 1-1.206-.488c-.807-.436-1.211-1.024-1.211-1.763 0-.384.108-.726.322-1.025.218-.303.53-.539.933-.708.407-.17.863-.254 1.367-.254.508 0 .96.093 1.358.278.397.183.704.441.922.777.222.335.332.716.332 1.142H27.56c0-.325-.103-.578-.308-.757-.205-.182-.493-.273-.864-.273-.358 0-.637.076-.835.23a.71.71 0 0 0-.298.595c0 .231.115.425.347.581.234.157.577.303 1.03.44.833.25 1.44.561 1.821.932s.571.834.571 1.387c0 .615-.232 1.099-.698 1.45-.465.348-1.092.523-1.88.523-.547 0-1.045-.1-1.494-.298-.45-.202-.793-.477-1.03-.825a2.117 2.117 0 0 1-.352-1.211h1.47c0 .784.469 1.176 1.406 1.176.349 0 .62-.07.816-.21a.698.698 0 0 0 .293-.595zm6.48.4h-2.57L30.978 39H29.42l2.646-7.11h1.358L36.085 39h-1.558l-.493-1.465zM31.86 36.35h1.778l-.894-2.661-.884 2.66zm9.165-.254h-2.812V39h-1.465v-7.11h4.629v1.187h-3.164v1.836h2.812v1.182zm5.479-.176h-2.813v1.904h3.301V39h-4.766v-7.11h4.756v1.187h-3.29v1.695h2.812v1.147zm6.797-2.842h-2.178V39h-1.465v-5.923H47.51v-1.186h5.79v1.186zm3.369 2.017l1.48-3.203h1.601l-2.334 4.53V39h-1.49v-2.578l-2.333-4.531H55.2l1.47 3.203zm-23.256 14.44h-2.568L30.357 51H28.8l2.646-7.11h1.358l2.66 7.11h-1.557l-.493-1.465zm-2.173-1.186h1.778l-.894-2.661-.884 2.66zm7.52.049h-1.167V51h-1.465v-7.11h2.642c.84 0 1.487.188 1.943.562.456.375.684.904.684 1.587 0 .485-.106.89-.318 1.216-.208.322-.526.58-.952.771l1.538 2.906V51h-1.572l-1.333-2.602zm-1.167-1.187h1.181c.368 0 .653-.093.855-.278.202-.19.303-.448.303-.777 0-.335-.096-.599-.288-.79-.19-.193-.48-.289-.875-.289h-1.176v2.134zm9.199.708H43.98v1.904h3.301V51h-4.765v-7.11h4.756v1.187H43.98v1.695h2.812v1.147zm5.361 1.616h-2.568L49.098 51H47.54l2.647-7.11h1.357L54.205 51h-1.557l-.494-1.465zm-2.173-1.186h1.778l-.894-2.661-.884 2.66zM17 71l5 2.887v-5.774L17 71zm50 0l-5-2.887v5.774L67 71zm-45.5.5h41v-1h-41v1zM17 13l5 2.887v-5.774L17 13zm50 0l-5-2.887v5.774L67 13zm-45.5.5h41v-1h-41v1zM73 74l2.887-5h-5.774L73 74zm0-63l-2.887 5h5.774L73 11zm.5 58.5v-54h-1v54h1zM11 74l2.887-5H8.113L11 74zm0-63l-2.887 5h5.774L11 11zm.5 58.5v-54h-1v54h1z" fill="#EEBE5C"/></svg>