<svg xmlns="http://www.w3.org/2000/svg" width="25" height="23" fill="none"><path d="M24.121 8.7a1.98 1.98 0 0 0-1.57-1.346l-5.66-.92-2.624-5.099a1.987 1.987 0 0 0-3.534 0L8.11 6.434l-5.66.92a1.987 1.987 0 0 0-1.092 3.36l4.038 4.07-.874 5.668a1.986 1.986 0 0 0 2.86 2.077l5.118-2.583 5.12 2.583a1.986 1.986 0 0 0 2.858-2.077l-.874-5.667 4.038-4.07a1.978 1.978 0 0 0 .48-2.014zm-1.588.914l-4.593 4.63.994 6.446a.424.424 0 0 1-.61.444L12.5 18.196l-5.823 2.938a.424.424 0 0 1-.61-.444l.994-6.446-4.593-4.63a.425.425 0 0 1 .233-.718L9.138 7.85l2.985-5.8a.425.425 0 0 1 .755 0l2.984 5.8L22.3 8.896a.424.424 0 0 1 .233.718z" fill="url(#paint0_linear_278_2165)"/><path d="M22.533 9.614l-4.593 4.63.994 6.446a.424.424 0 0 1-.61.444L12.5 18.196l-5.823 2.938a.424.424 0 0 1-.61-.444l.994-6.446-4.593-4.63a.425.425 0 0 1 .233-.718L9.138 7.85l2.985-5.8a.425.425 0 0 1 .755 0l2.984 5.8L22.3 8.896a.424.424 0 0 1 .233.718z" fill="url(#paint1_linear_278_2165)"/><defs><linearGradient id="paint0_linear_278_2165" x1="4.272" y1="-19.753" x2="32.167" y2="-18.588" gradientUnits="userSpaceOnUse"><stop stop-color="#EEBE5C"/><stop offset=".99" stop-color="#C8414B"/></linearGradient><linearGradient id="paint1_linear_278_2165" x1="4.272" y1="-19.753" x2="32.167" y2="-18.588" gradientUnits="userSpaceOnUse"><stop stop-color="#EEBE5C"/><stop offset=".99" stop-color="#C8414B"/></linearGradient></defs></svg>