<svg xmlns="http://www.w3.org/2000/svg" width="40" height="40" fill="none"><g clip-path="url(#clip0_2_1159)" fill="#292929"><path d="M9.334 26.334c-2.206 0-4 1.794-4 4 0 2.205 1.794 4 4 4s4-1.795 4-4c0-2.206-1.794-4-4-4zm0 6.666a2.67 2.67 0 0 1-2.667-2.666 2.67 2.67 0 0 1 2.667-2.667 2.67 2.67 0 0 1 2.667 2.666A2.67 2.67 0 0 1 9.334 33zM32 26.334c-2.206 0-4 1.794-4 4 0 2.205 1.794 4 4 4s4-1.795 4-4c0-2.206-1.794-4-4-4zM32 33a2.67 2.67 0 0 1-2.667-2.666A2.67 2.67 0 0 1 32 27.666a2.67 2.67 0 0 1 2.667 2.666A2.67 2.67 0 0 1 32 33z"/><path d="M39.895 22.64l-6-9.334a.667.667 0 0 0-.561-.306H26a.666.666 0 0 0-.667.667v16.666c0 .369.298.667.667.667h2.666v-1.333h-2V14.333h6.303l5.697 8.863v6.47h-3.333V31h4a.666.666 0 0 0 .666-.667V23a.664.664 0 0 0-.105-.36z"/><path d="M29.335 21.666V17h5.334v-1.334h-6a.666.666 0 0 0-.667.667v6c0 .369.298.667.667.667h10v-1.334h-9.334zM26 8.334H.667A.667.667 0 0 0 0 9v21.334c0 .368.299.666.667.666H6v-1.333H1.333v-20h24v20H12.667V31H26a.666.666 0 0 0 .667-.666V9A.666.666 0 0 0 26 8.334z"/><path d="M4.666 27h-4v1.333h4V27zm20.667 0H14v1.333h11.333V27zm14.002 0h-2.667v1.333h2.667V27zM26.001 11H2.668v1.333h23.333V11zm-16 18.666H8.668V31h1.333v-1.334zm22.666 0h-1.333V31h1.333v-1.334zM12.001 5.667H2.668V7h9.333V5.667zm-10.668 0H0V7h1.333V5.667z"/></g><defs><clipPath id="clip0_2_1159"><path fill="#fff" d="M0 0h40v40H0z"/></clipPath></defs></svg>