<svg xmlns="http://www.w3.org/2000/svg" width="84" height="84" viewBox="0 0 84 84" fill="none">
  <rect x="1" y="1" width="82" height="82" rx="9" stroke="#EEBE5C" stroke-width="2"/>
  <path d="M61.8504 37.4422C60.4654 34.1895 58.3031 31.3265 55.5534 29.1046C52.8036 26.8827 49.5505 25.3697 46.0795 24.6985L49.215 19.6818L46.035 17.6943L41.8977 24.314C37.6834 24.3336 33.5671 25.5874 30.0575 27.9205C26.5479 30.2536 23.7987 33.5639 22.1496 37.4422C19.9407 37.4842 17.8364 38.3911 16.2891 39.9681C14.7418 41.5451 13.875 43.6663 13.875 45.8756C13.875 48.0849 14.7418 50.206 16.2891 51.783C17.8364 53.36 19.9407 54.267 22.1496 54.309C23.8057 58.2033 26.5707 61.5244 30.1003 63.8589C33.6299 66.1934 37.7682 67.4381 42 67.4381C46.2318 67.4381 50.3701 66.1934 53.8997 63.8589C57.4293 61.5244 60.1943 58.2033 61.8504 54.309C64.0593 54.267 66.1636 53.36 67.7109 51.783C69.2582 50.206 70.125 48.0849 70.125 45.8756C70.125 43.6663 69.2582 41.5451 67.7109 39.9681C66.1636 38.3911 64.0593 37.4842 61.8504 37.4422ZM65.0323 49.158C64.1746 50.0352 63.0057 50.5388 61.7792 50.5597L59.3504 50.6059L58.3997 52.8411C57.0317 56.0587 54.7475 58.8027 51.8315 60.7316C48.9154 62.6605 45.4964 63.689 42.0001 63.689C38.5038 63.689 35.0847 62.6605 32.1687 60.7316C29.2526 58.8027 26.9684 56.0587 25.6004 52.8411L24.6496 50.6059L22.2209 50.5597C20.9937 50.5367 19.8246 50.0331 18.9649 49.1572C18.1052 48.2812 17.6236 47.1029 17.6236 45.8756C17.6236 44.6482 18.1052 43.4699 18.9649 42.594C19.8246 41.718 20.9937 41.2144 22.2209 41.1915L24.6496 41.1453L25.6004 38.9101C26.9684 35.6925 29.2527 32.9485 32.1687 31.0196C35.0848 29.0908 38.5038 28.0623 42.0001 28.0623C45.4963 28.0623 48.9154 29.0908 51.8314 31.0196C54.7475 32.9485 57.0317 35.6925 58.3997 38.9101L59.3504 41.1453L61.7792 41.1915C62.6944 41.2088 63.5845 41.4939 64.3396 42.0115C65.0946 42.5292 65.6814 43.2567 66.0274 44.1042C66.3735 44.9517 66.4637 45.882 66.2868 46.7801C66.11 47.6783 65.6738 48.505 65.0323 49.158Z" fill="#EEBE5C"/>
  <path d="M31.6875 41.1875H36.375V45.875H31.6875V41.1875Z" fill="#EEBE5C"/>
  <path d="M47.625 41.1875H52.3125V45.875H47.625V41.1875Z" fill="#EEBE5C"/>
  <path d="M42 59C43.2311 59 44.4502 58.7575 45.5877 58.2864C46.7251 57.8152 47.7586 57.1247 48.6291 56.2541C49.4997 55.3836 50.1902 54.3501 50.6614 53.2127C51.1325 52.0752 51.375 50.8561 51.375 49.625H32.625C32.625 50.8561 32.8675 52.0752 33.3386 53.2127C33.8098 54.3501 34.5003 55.3836 35.3709 56.2541C37.129 58.0123 39.5136 59 42 59Z" fill="#EEBE5C"/>
</svg>