<svg xmlns="http://www.w3.org/2000/svg" width="21" height="15" viewBox="0 0 21 15" fill="none">
  <path fill-rule="evenodd" clip-rule="evenodd" d="M19.0008 0H2C0.895431 0 0 0.895429 0 2V12.9958C0 14.1004 0.895433 
  14.9958 2 14.9958H19.0008C20.1054 14.9958 21.0008 14.1004 21.0008 12.9958V2C21.0008 0.895429 20.1054 0 19.0008 0ZM1 
  2C1 1.44771 1.44772 1 2 1H19.0008C19.5531 1 20.0008 1.44772 20.0008 2V2.22897L10.4598 7.64451L1 2.23018V2ZM1 3.38239V12.9958C1 
  13.0814 1.01074 13.1644 1.03096 13.2437L7.15008 6.90241L1 3.38239ZM2 13.9958C1.90656 13.9958 1.81611 13.983 1.73032 
  13.9591L8.04531 7.4148L10.2104 8.65397L10.4577 8.79554L10.7055 8.65486L12.523 7.62325L18.6724 13.9958H2ZM19.5136 
  13.8545C19.8055 13.6799 20.0008 13.3607 20.0008 12.9958V3.37883L13.4209 7.11361L19.727 13.6486L19.5136 13.8545Z" fill="#292929"/>
</svg>