<svg xmlns="http://www.w3.org/2000/svg" width="21" height="21" viewBox="0 0 21 21" fill="none">
<path d="M9.49 4.68C9.49 4.69 9.5 4.69 9.5 4.7 10.03 5.31 9.94 6.22 9.38 6.77L8.12 8.04C9.28 10.04 10.94 
11.71 12.94 12.87L14.21 11.6C14.77 11.05 15.67 10.95 16.28 11.48L20 14.67C20.68 15.26 20.64 16.28 20.03 
16.89L17.36 19.56C16.44 20.49 15.04 20.77 13.9 20.22 8.17 17.44 3.55 12.81.78 7.08.23 5.94.51 4.54 1.44 
3.62L4.08.97C4.68.37 5.71.32 6.29.99L9.49 4.68Z" stroke="#082A1E" stroke-linecap="round" stroke-linejoin="round"/>
</svg>



