<svg xmlns="http://www.w3.org/2000/svg" width="18" height="24" viewBox="0 0 18 24" fill="none">
<path d="M8.99879 11.7144C11.0124 11.7144 12.646 10.0841 12.646 8.07157C12.646 6.05902 11.0124 4.42871 8.99879 
4.42871C6.98514 4.42871 5.35156 6.05902 5.35156 8.07157C5.35156 10.0841 6.98514 11.7144 8.99879 11.7144Z" stroke="#082A1E" stroke-linecap="round" stroke-linejoin="round"/>
<path d="M9 23C8.57617 23.2653 8.57614 23.2652 8.57609 23.2651L8.57592 23.2649L8.57532 23.2639L8.57305 23.2603L8.56429 
23.2462L8.53035 23.1916C8.50059 23.1437 8.4568 23.0728 8.40031 22.9809C8.28735 22.797 8.1236 22.5286 7.91984 22.1894C7.51236 
21.5112 6.9446 20.5499 6.3028 19.4159C5.02073 17.1508 3.43686 14.1861 2.24608 11.4115C-0.264496 5.5616 3.94203 0.5 9 0.5C14.058 
0.5 18.2645 5.5616 15.7539 11.4115C14.5631 14.1861 12.9793 17.1508 11.6972 19.4159C11.0554 20.5499 10.4876 21.5112 10.0802 
22.1894C9.8764 22.5286 9.71265 22.797 9.59969 22.9809C9.5432 23.0728 9.49941 23.1437 9.46965 23.1916L9.43571 23.2462L9.42695 
23.2603L9.42468 23.2639L9.42408 23.2649L9.42391 23.2651C9.42386 23.2652 9.42383 23.2653 9 23ZM9 23L9.42383 23.2653C9.33243 23.4113 
9.17228 23.5 9 23.5C8.82772 23.5 8.66757 23.4113 8.57617 23.2653L9 23Z" stroke="#082A1E" stroke-linecap="round" stroke-linejoin="round"/>
</svg>