<svg width="26" height="26" viewBox="0 0 26 26" fill="none" xmlns="http://www.w3.org/2000/svg">
<path d="M15.6096 6.00308H13.5298C10.8809 5.97652 10.5426 7.61949 10.5426 9.39761V10.6906H9.37329C9.32044 10.6835 9.26667 10.6887 9.21617 10.7059C9.16566 10.723 9.11977 10.7516 9.08207 10.7893C9.04437 10.8271 9.01586 10.8731 8.99877 10.9237C8.98168 10.9744 8.97646 11.0282 8.98352 11.0812V13.425C8.97646 13.4779 8.98168 13.5318 8.99877 13.5824C9.01586 13.633 9.04437 13.679 9.08207 13.7168C9.11977 13.7546 9.16566 13.7832 9.21617 13.8003C9.26667 13.8174 9.32044 13.8227 9.37329 13.8156H10.5426V19.675C10.5361 19.728 10.5418 19.7819 10.5592 19.8324C10.5767 19.8829 10.6054 19.9288 10.6433 19.9665C10.6811 20.0041 10.727 20.0327 10.7775 20.0498C10.828 20.067 10.8818 20.0724 10.9347 20.0656H13.3162C13.5462 20.0921 13.7325 19.9054 13.6592 19.675L13.6607 13.8156H15.6096C15.6624 13.8227 15.7162 13.8174 15.7667 13.8003C15.8172 13.7832 15.8631 13.7546 15.9008 13.7168C15.9385 13.679 15.967 13.633 15.9841 13.5824C16.0012 13.5318 16.0064 13.4779 15.9994 13.425V11.0812C16.0064 11.0282 16.0012 10.9744 15.9841 10.9237C15.967 10.8731 15.9385 10.8271 15.9008 10.7893C15.8631 10.7516 15.8172 10.723 15.7667 10.7059C15.7162 10.6887 15.6624 10.6835 15.6096 10.6906H13.6584L13.6607 9.51871C13.7364 9.01949 13.7364 9.10074 14.1986 9.12808H15.5932C15.7016 9.10386 15.817 9.11715 15.898 9.03824C15.9791 8.95933 16.0259 8.85152 15.9986 8.73746V6.39371C16.0058 6.34078 16.0007 6.28691 15.9837 6.23628C15.9667 6.18566 15.9383 6.13965 15.9006 6.10184C15.863 6.06404 15.8171 6.03545 15.7666 6.01832C15.7162 6.00119 15.6624 5.99598 15.6096 6.00308ZM15.1925 8.30308L14.215 8.26558C13.0044 8.26558 12.903 8.92418 12.903 9.5984L12.8999 11.0796C12.8998 11.1345 12.9105 11.1888 12.9314 11.2395C12.9523 11.2902 12.9829 11.3363 13.0216 11.3751C13.0602 11.414 13.1062 11.4448 13.1567 11.4658C13.2073 11.4868 13.2615 11.4976 13.3162 11.4976H15.2198V13.007H13.3178C13.2073 13.007 13.1013 13.0509 13.0231 13.1291C12.9449 13.2073 12.9009 13.3135 12.9007 13.4242L12.8999 19.2843H11.3221V13.425C11.3221 13.1945 11.1654 13.0078 10.9347 13.0078H9.76306V11.4984H10.9347C10.9894 11.4985 11.0436 11.4878 11.0941 11.4668C11.1447 11.4459 11.1907 11.4152 11.2294 11.3765C11.3073 11.2976 11.3214 11.1914 11.3214 11.0804V9.39683C11.3214 7.64527 11.6745 6.8109 13.529 6.8109H15.1918V8.30308H15.1925Z" fill="white"/>
<rect x="0.5" y="0.5" width="24.943" height="25" rx="4.5" stroke="white"/>
</svg>
