<svg width="25" height="25" viewBox="0 0 25 25" fill="none" xmlns="http://www.w3.org/2000/svg">
<path d="M24.207 10.9777L13.083 0.237403C12.7589 -0.0784833 12.242 -0.0784833 11.918 0.237403L0.794318 10.9773C0.630556 11.1354 0.538086 11.3532 0.538086 11.5808C0.538086 12.044 0.913627 12.4195 1.37682 12.4195H2.85508V24.1617C2.85508 24.625 3.23056 25.0005 3.6938 25.0005H9.56491C10.0281 25.0005 10.4036 24.625 10.4036 24.1617V17.4519H14.5973V24.1617C14.5973 24.625 14.9728 25.0005 15.436 25.0005H21.3071C21.7704 25.0005 22.1458 24.625 22.1458 24.1617V12.4195H23.6241C23.8515 12.4195 24.0691 12.3272 24.2271 12.1637C24.5491 11.8306 24.54 11.2997 24.207 10.9777ZM22.1458 11.5808C21.6826 11.5808 21.3071 11.9563 21.3071 12.4195V24.1617H15.436V17.4519C15.436 16.9887 15.0605 16.6132 14.5973 16.6132H10.4036C9.9404 16.6132 9.56491 16.9887 9.56491 17.4519V24.1617H3.6938V12.4195C3.6938 11.9563 3.31832 11.5808 2.85508 11.5808H1.37682L12.5005 0.840869L23.6283 11.5808H22.1458Z" fill="#292929"/>
</svg>
