<svg xmlns="http://www.w3.org/2000/svg" width="60" height="60" viewBox="0 0 60 60" fill="none">
<path d="M52.6826 60H7.47363C5.46574 60 3.58512 59.2316 2.1784 57.8365C0.773672 56.4431 0 54.5851 0 52.6045V7.39547C0 3.3177 3.3177 0 7.39559 0H52.6044C56.6823 0 60 3.3177 60 7.39547V52.6044C60 56.6823 56.7175 60 52.6826 60ZM7.39559 1.75781C4.28695 1.75781 1.75781 4.28684 1.75781 7.39547V52.6044C1.75781 54.1127 2.3468 55.5277 3.41625 56.5883C4.49156 57.6548 5.9325 58.2422 7.47363 58.2422H52.6826C55.7482 58.2422 58.2422 55.7132 58.2422 52.6045V7.39547C58.2422 4.28684 55.713 1.75781 52.6044 1.75781H7.39559Z" fill="#EEBE5C"/>
<path d="M52.6044 56.0155H7.39559C5.51461 56.0155 3.98438 54.4852 3.98438 52.6043V47.992C3.98438 47.5065 4.37789 47.1131 4.86328 47.1131C5.34867 47.1131 5.74219 47.5065 5.74219 47.992V52.6043C5.74219 53.5161 6.48387 54.2577 7.39559 54.2577H52.6044C53.5161 54.2577 54.2578 53.5161 54.2578 52.6043V16.1318C54.2578 15.6463 54.6513 15.2529 55.1367 15.2529C55.6221 15.2529 56.0156 15.6463 56.0156 16.1318V52.6042C56.0156 54.4852 54.4854 56.0155 52.6044 56.0155Z" fill="#EEBE5C"/>
<path d="M4.86328 44.762C4.37789 44.762 3.98438 44.3686 3.98438 43.8831V7.39559C3.98438 5.51473 5.51461 3.98438 7.39559 3.98438H52.6044C54.4854 3.98438 56.0156 5.51473 56.0156 7.39559V12.023C56.0156 12.5085 55.6221 12.9019 55.1367 12.9019C54.6513 12.9019 54.2578 12.5085 54.2578 12.023V7.39559C54.2578 6.48387 53.5161 5.74219 52.6044 5.74219H7.39559C6.48387 5.74219 5.74219 6.48387 5.74219 7.39559V43.883C5.74219 44.3685 5.34867 44.762 4.86328 44.762Z" fill="#EEBE5C"/>
<path d="M34.8097 48.6472H25.1891C23.492 48.6472 22.1113 47.2665 22.1113 45.5694V43.921C22.1113 42.2238 23.492 40.843 25.1891 40.843C25.3061 40.843 25.4013 40.7479 25.4013 40.6308V29.4149C24.1311 29.0358 23.2023 27.8568 23.2023 26.4649V25.9007C23.2023 24.2036 24.583 22.8228 26.2802 22.8228H31.517C33.2141 22.8228 34.5948 24.2035 34.5948 25.9007V40.5632C34.5966 40.5856 34.5974 40.6082 34.5974 40.6309C34.5974 40.7479 34.6926 40.8431 34.8095 40.8431C36.5066 40.8431 37.8873 42.2238 37.8873 43.9211V45.5695C37.8875 47.2665 36.5068 48.6472 34.8097 48.6472ZM26.2802 24.5807C25.5523 24.5807 24.9602 25.1729 24.9602 25.9008V26.4651C24.9602 27.1929 25.5523 27.7851 26.2802 27.7851C26.7655 27.7851 27.1591 28.1785 27.1591 28.664V40.6309C27.1591 41.7172 26.2754 42.601 25.1891 42.601C24.4613 42.601 23.8691 43.1932 23.8691 43.9211V45.5695C23.8691 46.2974 24.4613 46.8895 25.1891 46.8895H34.8097C35.5375 46.8895 36.1297 46.2974 36.1297 45.5695V43.9211C36.1297 43.1932 35.5375 42.601 34.8097 42.601C33.7546 42.601 32.8906 41.7672 32.8418 40.7238C32.8387 40.6936 32.837 40.6631 32.837 40.6324V25.9008C32.837 25.1729 32.2449 24.5807 31.517 24.5807H26.2802Z" fill="#EEBE5C"/>
<path d="M29.4843 21.2195C26.764 21.2195 24.5508 19.0063 24.5508 16.286C24.5508 13.5657 26.7639 11.3525 29.4843 11.3525C32.2046 11.3525 34.4177 13.5657 34.4177 16.286C34.4177 19.0063 32.2045 21.2195 29.4843 21.2195ZM29.4843 13.1105C27.7332 13.1105 26.3086 14.535 26.3086 16.2861C26.3086 18.0373 27.7331 19.4618 29.4843 19.4618C31.2354 19.4618 32.6599 18.0373 32.6599 16.2861C32.6599 14.535 31.2353 13.1105 29.4843 13.1105Z" fill="#EEBE5C"/>
</svg>