<svg xmlns="http://www.w3.org/2000/svg" width="24" height="24" viewBox="0 0 24 24" fill="none">
  <path d="M12 0C15.1826 0 18.2348 1.26428 20.4853 3.51472C22.7357 5.76515 24 8.8174 24 12C24 15.1826 
  22.7357 18.2348 20.4853 20.4853C18.2348 22.7357 15.1826 24 12 24C8.8174 24 5.76515 22.7357 3.51472 
  20.4853C1.26428 18.2348 0 15.1826 0 12C0 8.8174 1.26428 5.76515 3.51472 3.51472C5.76515 1.26428 8.8174 0 12 
  0ZM12 5.14286C11.7824 5.14267 11.5671 5.18788 11.3679 5.2756C11.1687 5.36331 10.99 5.49161 10.8432 
  5.65229C10.6964 5.81297 10.5847 6.0025 10.5153 6.20877C10.4459 6.41505 10.4202 6.63354 10.44 6.85029L11.0657 
  13.7177C11.09 13.9486 11.1989 14.1623 11.3714 14.3177C11.5439 14.473 11.7678 14.559 12 14.559C12.2322 14.559 
  12.4561 14.473 12.6286 14.3177C12.8011 14.1623 12.91 13.9486 12.9343 13.7177L13.5583 6.85029C13.5781 6.63368 
  13.5525 6.41534 13.4832 6.20918C13.4138 6.00302 13.3023 5.81357 13.1557 5.65292C13.0091 5.49227 12.8306 5.36394 
  12.6316 5.27612C12.4326 5.18829 12.2175 5.14291 12 5.14286ZM12 18.8571C12.3637 18.8571 12.7126 18.7127 12.9697 
  18.4555C13.2269 18.1983 13.3714 17.8494 13.3714 17.4857C13.3714 17.122 13.2269 16.7732 12.9697 16.516C12.7126 16.2588 
  12.3637 16.1143 12 16.1143C11.6363 16.1143 11.2874 16.2588 11.0303 16.516C10.7731 16.7732 10.6286 17.122 10.6286 
  17.4857C10.6286 17.8494 10.7731 18.1983 11.0303 18.4555C11.2874 18.7127 11.6363 18.8571 12 18.8571Z" fill="#D2614F"/>
</svg>