<svg xmlns="http://www.w3.org/2000/svg" width="84" height="84" viewBox="0 0 84 84" fill="none">
  <rect x="1" y="1" width="82" height="82" rx="9" stroke="#EEBE5C" stroke-width="2"/>
  <path d="M17 71L22 73.8868V68.1132L17 71ZM67 71L62 68.1132V73.8868L67 71ZM21.5 71.5H62.5V70.5H21.5V71.5Z" fill="#EEBE5C"/>
  <path d="M17 13L22 15.8868V10.1132L17 13ZM67 13L62 10.1132V15.8868L67 13ZM21.5 13.5H62.5V12.5H21.5V13.5Z" fill="#EEBE5C"/>
  <path d="M10 74L12.8868 69H7.11325L10 74ZM10 11L7.11325 16H12.8868L10 11ZM10.5 69.5L10.5 15.5H9.5L9.5 69.5H10.5Z" fill="#EEBE5C"/>
  <path d="M74 74 76.8867 69H71.1132L74 74ZM74 11 71.1132 16H76.8867L74 11ZM74.5 69.5 74.5 15.5H73.5L73.5 69.5H74.5Z" fill="#EEBE5C"/>
</svg>