<svg xmlns="http://www.w3.org/2000/svg" width="50" height="50" viewBox="0 0 50 50" fill="none">
  <path fill-rule="evenodd" clip-rule="evenodd" d="M25 46.875C30.8016 46.875 36.3656 44.5703 40.468 40.468C44.5703 36.3656 46.875 30.8016 46.875 25C46.875 19.1984 
  44.5703 13.6344 40.468 9.53204C36.3656 5.42968 30.8016 3.125 25 3.125C19.1984 3.125 13.6344 5.42968 9.53204 9.53204C5.42968 13.6344 3.125 19.1984 3.125 25C3.125 
  30.8016 5.42968 36.3656 9.53204 40.468C13.6344 44.5703 19.1984 46.875 25 46.875ZM25 2.98122e-07C31.6304 3.77189e-07 37.9893 2.63392 42.6777 7.32233C47.3661 12.0107 
  50 18.3696 50 25C50 31.6304 47.3661 37.9893 42.6777 42.6777C37.9893 47.3661 31.6304 50 25 50C18.3696 50 12.0107 47.3661 7.32233 42.6777C2.63392 37.9893 2.19055e-07 
  31.6304 2.98122e-07 25C3.77189e-07 18.3696 2.63392 12.0107 7.32233 7.32233C12.0107 2.63392 18.3696 2.19055e-07 25 2.98122e-07ZM14.0625 23.4375C13.6481 23.4375 13.2507 
  23.6021 12.9576 23.8951C12.6646 24.1882 12.5 24.5856 12.5 25C12.5 25.4144 12.6646 25.8118 12.9576 26.1049C13.2507 26.3979 13.6481 26.5625 14.0625 26.5625L32.1656 
  26.5625L25.4562 33.2687C25.1629 33.5621 24.998 33.9601 24.998 34.375C24.998 34.7899 25.1629 35.1879 25.4562 35.4813C25.7496 35.7746 26.1476 35.9395 26.5625 35.9395C26.9774 
  35.9395 27.3754 35.7746 27.6688 35.4813L37.0438 26.1063C37.1893 25.9611 37.3047 25.7887 37.3835 25.5989C37.4622 25.409 37.5028 25.2055 37.5028 25C37.5028 24.7945 37.4622 
  24.591 37.3835 24.4011C37.3047 24.2113 37.1893 24.0389 37.0438 23.8937L27.6688 14.5187C27.3754 14.2254 26.9774 14.0605 26.5625 14.0605C26.1476 14.0605 25.7496 14.2254 
  25.4562 14.5187C25.1629 14.8121 24.998 15.2101 24.998 15.625C24.998 16.0399 25.1629 16.4379 25.4562 16.7313L32.1656 23.4375L14.0625 23.4375Z" fill="#EEBE5C"/>
</svg>