<svg xmlns="http://www.w3.org/2000/svg" width="60" height="64" viewBox="0 0 60 64" fill="none">
<g clip-path="url(#clip0_2_845)">
<path d="M57.5 0H2.5C1.2 0 .2 1 .2 2.2V55.3C.2 56.5 1.2 57.5 2.5 57.5H14.7C15.2 57.5 15.7 57.1 15.7 56.6 15.7 56.1 15.2 55.7 14.7 55.7H2.5C2.3 55.7 2.1 55.5 2.1 55.3V2.2C2.1 2 2.3 1.9 2.5 1.9H57.5C57.7 1.9 57.9 2 57.9 2.2V55.3C57.9 55.5 57.7 55.7 57.5 55.7H51.9C51.4 55.7 50.9 56.1 50.9 56.6V61.8C50.9 62.1 50.6 62.2 50.3 62L44 55.9C43.8 55.8 43.6 55.7 43.3 55.7H19.9C18.6 55.7 18.6 57.5 19.9 57.5H42.9L49 63.4C50.4 64.7 52.9 63.7 52.9 61.8V57.5H57.5C58.8 57.5 59.8 56.5 59.8 55.3V2.2C59.8 1 58.8 0 57.5 0V0Z" fill="#EEBE5C"/>
<path d="M29.8 42.8C27.3 42.8 25.3 44.7 25.3 47.1 25.6 52.7 34 52.7 34.2 47.1 34.2 44.7 32.2 42.8 29.8 42.8ZM29.8 49.5C28.4 49.5 27.3 48.4 27.3 47.1 27.4 43.9 32.1 43.9 32.2 47.1 32.2 48.4 31.1 49.5 29.8 49.5Z" fill="#EEBE5C"/>
<path d="M24 20C25.4 13.5 35 14 35.5 20.7 35.6 22.1 35 23.6 34 24.8 32.9 25.9 31.3 26.6 29.8 26.6 27.4 26.6 25.3 28.5 25.3 30.8V38.8C25.3 40.1 26.4 41.1 27.6 41.1H31.8C33.1 41.1 34.1 40.1 34.1 38.8V34.7C34.1 34.5 34.2 34.4 34.4 34.3 40.4 32.5 44.7 26.3 44.3 20.2 44.2 17.8 43.4 15.5 42.1 13.5 41.4 12.5 39.8 13.5 40.5 14.5 44.9 21 41.3 30.1 33.8 32.5 32.8 32.9 32.2 33.7 32.2 34.7V38.8C32.2 39 32 39.2 31.8 39.2H27.6C27.4 39.2 27.3 39 27.3 38.8V30.8C27.3 29.5 28.5 28.5 29.8 28.4 34 28.5 37.8 24.6 37.5 20.6 36.7 11.7 23.9 11 22.1 19.7 22.1 19.9 21.9 20 21.7 20H17.5C17.3 20 17.2 19.9 17.2 19.6 18.2 10.5 29.6 5.5 37.2 11.1 38.2 11.8 39.4 10.3 38.4 9.6 29.6 3.1 16.4 8.8 15.2 19.4 15.1 20.7 16.2 21.9 17.5 21.9H21.7C22.9 21.9 23.8 21.1 24 20Z" fill="#EEBE5C"/>
<path d="M6.5 38.3C6 38.3 5.5 38.7 5.5 39.2V50.5C5.5 51 6 51.5 6.5 51.5 7 51.5 7.5 51 7.5 50.5V39.2C7.5 38.7 7 38.3 6.5 38.3Z" fill="#EEBE5C"/>
<path d="M54.5 12.6V5.9C54.4 4.7 52.6 4.7 52.6 5.9V12.6C52.6 13.1 53 13.5 53.5 13.5 54.1 13.5 54.5 13.1 54.5 12.6Z" fill="#EEBE5C"/>
<path d="M7.5 32.6C7.4 31.4 5.6 31.4 5.5 32.6V35.1C5.5 35.7 6 36.1 6.5 36.1 7 36.1 7.5 35.7 7.5 35.1V32.6Z" fill="#EEBE5C"/>
</g>
</svg>