<svg xmlns="http://www.w3.org/2000/svg" width="84" height="84" viewBox="0 0 84 84" fill="none">
  <rect x="1" y="1" width="82" height="82" rx="9" stroke="#EEBE5C" stroke-width="2"/>
  <path d="M27.5547 37.1348C27.5547 36.8581 27.457 36.6465 27.2617 36.5C27.0664 36.3503 26.7148 36.194 26.207 36.0312C25.6992 
  35.8652 25.2972 35.7025 25.001 35.543C24.1937 35.1068 23.79 34.5192 23.79 33.7803C23.79 33.3962 23.8975 33.0544 24.1123 32.7549C24.3304 
  32.4521 24.6413 32.2161 25.0449 32.0469C25.4518 31.8776 25.9076 31.793 26.4121 31.793C26.9199 31.793 27.3724 31.8857 27.7695 
  32.0713C28.1667 32.2536 28.4743 32.5124 28.6924 32.8477C28.9137 33.1829 29.0244 33.5638 29.0244 33.9902H27.5596C27.5596 33.6647 
  27.457 33.4124 27.252 33.2334C27.0469 33.0511 26.7588 32.96 26.3877 32.96C26.0296 32.96 25.7513 33.0365 25.5527 33.1895C25.3542 
  33.3392 25.2549 33.5378 25.2549 33.7852C25.2549 34.0163 25.3704 34.21 25.6016 34.3662C25.8359 34.5225 26.1794 34.6689 26.6318 
  34.8057C27.4652 35.0563 28.0723 35.3672 28.4531 35.7383C28.834 36.1094 29.0244 36.5716 29.0244 37.125C29.0244 37.7402 28.7917 
  38.2236 28.3262 38.5752C27.8607 38.9235 27.234 39.0977 26.4463 39.0977C25.8994 39.0977 25.4014 38.9984 24.9521 38.7998C24.5029 
  38.598 24.1595 38.3229 23.9219 37.9746C23.6875 37.6263 23.5703 37.2227 23.5703 36.7637H25.04C25.04 37.5482 25.5088 37.9404 26.4463 
  37.9404C26.7946 37.9404 27.0664 37.8704 27.2617 37.7305C27.457 37.5872 27.5547 37.3887 27.5547 37.1348ZM34.0342 37.5352H31.4658L30.9775 
  39H29.4199L32.0664 31.8906H33.4238L36.085 39H34.5273L34.0342 37.5352ZM31.8613 36.3486H33.6387L32.7451 33.6875L31.8613 36.3486ZM41.0264 
  36.0947H38.2139V39H36.749V31.8906H41.3779V33.0771H38.2139V34.9131H41.0264V36.0947ZM46.5049 35.9189H43.6924V37.8232H46.9932V39H42.2275V31.8906H46.9834V33.0771H43.6924V34.7715H46.5049V35.9189ZM53.3018 
  33.0771H51.124V39H49.6592V33.0771H47.5107V31.8906H53.3018V33.0771ZM56.6709 35.0938L58.1504 31.8906H59.752L57.418 36.4219V39H55.9287V36.4219L53.5947 
  31.8906H55.2012L56.6709 35.0938ZM33.4141 49.5352H30.8457L30.3574 51H28.7998L31.4463 43.8906H32.8037L35.4648 51H33.9072L33.4141 49.5352ZM31.2412 
  48.3486H33.0186L32.125 45.6875L31.2412 48.3486ZM38.7607 48.3975H37.5938V51H36.1289V43.8906H38.7705C39.6104 43.8906 40.2581 44.0778 40.7139 
  44.4521C41.1696 44.8265 41.3975 45.3555 41.3975 46.0391C41.3975 46.5241 41.2917 46.9294 41.0801 47.2549C40.8717 47.5771 40.5544 47.8343 40.1279 
  48.0264L41.666 50.9316V51H40.0938L38.7607 48.3975ZM37.5938 47.2109H38.7754C39.1432 47.2109 39.4281 47.1182 39.6299 46.9326C39.8317 46.7438 39.9326 
  46.485 39.9326 46.1562C39.9326 45.821 39.8366 45.5573 39.6445 45.3652C39.4557 45.1732 39.1644 45.0771 38.7705 45.0771H37.5938V47.2109ZM46.793 
  47.9189H43.9805V49.8232H47.2812V51H42.5156V43.8906H47.2715V45.0771H43.9805V46.7715H46.793V47.9189ZM52.1543 49.5352H49.5859L49.0977 51H47.54L50.1865 
  43.8906H51.5439L54.2051 51H52.6475L52.1543 49.5352ZM49.9814 48.3486H51.7588L50.8652 45.6875L49.9814 48.3486Z" fill="#EEBE5C"/>
  <path d="M17 71L22 73.8868V68.1132L17 71ZM67 71L62 68.1132V73.8868L67 71ZM21.5 71.5H62.5V70.5H21.5V71.5Z" fill="#EEBE5C"/>
  <path d="M17 13L22 15.8868V10.1132L17 13ZM67 13L62 10.1132V15.8868L67 13ZM21.5 13.5H62.5V12.5H21.5V13.5Z" fill="#EEBE5C"/>
  <path d="M73 74L75.8868 69H70.1132L73 74ZM73 11L70.1132 16H75.8868L73 11ZM73.5 69.5V15.5H72.5V69.5H73.5Z" fill="#EEBE5C"/>
  <path d="M11 74 13.8867 69H8.1132L11 74ZM11 11 8.1132 16H13.8867L11 11ZM11.5 69.5 11.5 15.5H10.5L10.5 69.5H11.5Z" fill="#EEBE5C"/>
</svg>