<svg xmlns="http://www.w3.org/2000/svg" width="28" height="28" viewBox="0 0 28 28" fill="none">
<path d="M28.0006 26.5861L20.4486 19.0341C22.2634 16.8554 23.1684 14.061 22.9753 11.232C22.7822 8.40309 21.5059 5.75751 19.4118 3.84563C17.3178 
1.93376 14.5673 0.90279 11.7326 0.967202C8.89778 1.03161 6.19696 2.18644 4.19194 4.19146C2.18693 6.19647 1.0321 8.89729 0.96769 11.7321C0.903278 
14.5669 1.93424 17.3173 3.84612 19.4114C5.75799 21.5054 8.40357 22.7817 11.2325 22.9748C14.0614 23.1679 16.8559 22.2629 19.0346 20.4481L26.5866 
28.0001L28.0006 26.5861ZM3.0006 12.0001C3.0006 10.2201 3.52844 8.48003 4.51738 6.99998C5.50631 5.51994 6.91192 4.36639 8.55645 3.6852C10.201 
3.00401 12.0106 2.82578 13.7564 3.17305C15.5022 3.52032 17.1059 4.37748 18.3646 5.63615C19.6232 6.89483 20.4804 8.49847 20.8277 10.2443C21.1749 
11.9901 20.9967 13.7997 20.3155 15.4443C19.6343 17.0888 18.4808 18.4944 17.0007 19.4833C15.5207 20.4723 13.7806 21.0001 12.0006 21.0001C9.61447 
20.9975 7.32682 20.0484 5.63957 18.3612C3.95231 16.6739 3.00325 14.3863 3.0006 12.0001Z" fill="#292929"/>
</svg>