<svg xmlns="http://www.w3.org/2000/svg" width="25" height="23" viewBox="0 0 25 23" fill="none">
  <path d="M24.1214 8.70081C24.0093 8.35315 23.8033 8.04328 23.526 7.80549C23.2487 7.56771 22.911 7.41129 22.5504 7.35355L16.8908 6.43377L14.2671 1.33543C14.1 1.01086 13.8467 0.738601 13.535 0.548517C13.2234 0.358433 12.8653 0.257874 12.5003 0.257874C12.1352 0.257874 11.7772 0.358433 11.4655 0.548517C11.1538 0.738601 10.9006 1.01086 10.7334 1.33543L8.1098 6.43377L2.45028 7.35355C2.08996 7.41219 1.75276 7.56896 1.47567 7.80663C1.19858 8.04431 0.992312 8.35372 0.879498 8.70091C0.766685 9.0481 0.751685 9.41966 0.836144 9.77482C0.920603 10.13 1.10126 10.455 1.35828 10.7142L5.39637 14.7849L4.52235 20.4517C4.46626 20.8126 4.51081 21.182 4.65108 21.5193C4.79135 21.8565 5.02192 22.1486 5.31742 22.3633C5.61293 22.578 5.96192 22.707 6.32601 22.7362C6.69011 22.7654 7.0552 22.6936 7.38114 22.5287L12.5003 19.9462L17.6196 22.5287C17.9455 22.6933 18.3105 22.7648 18.6745 22.7355C19.0384 22.7061 19.3873 22.5771 19.6827 22.3624C19.9781 22.1478 20.2086 21.8559 20.349 21.5189C20.4893 21.1818 20.5341 20.8125 20.4784 20.4517L19.6043 14.7849L23.6424 10.7142C23.9003 10.4555 24.0815 10.1305 24.166 9.77511C24.2505 9.41975 24.2351 9.04793 24.1214 8.70081ZM22.533 9.6139L17.9397 14.2442L18.9341 20.69C18.9464 20.7672 18.9371 20.8463 18.9072 20.9186C18.8774 20.9908 18.8281 21.0534 18.7648 21.0993C18.7016 21.1453 18.6269 21.1728 18.5489 21.1789C18.471 21.185 18.3929 21.1694 18.3233 21.1338L12.5003 18.1962L6.67723 21.1339C6.60762 21.1694 6.52952 21.1851 6.45159 21.179C6.37365 21.1729 6.29892 21.1454 6.23568 21.0994C6.17243 21.0535 6.12314 20.9909 6.09327 20.9187C6.0634 20.8464 6.05411 20.7673 6.06644 20.6901L7.06082 14.2442L2.46761 9.61385C2.41276 9.55843 2.37422 9.48899 2.35621 9.41313C2.3382 9.33726 2.34142 9.2579 2.36551 9.18375C2.38961 9.10959 2.43364 9.04349 2.4928 8.9927C2.55196 8.94191 2.62396 8.90838 2.70091 8.89578L9.13846 7.84959L12.1228 2.05042C12.1585 1.98105 12.2126 1.92286 12.2792 1.88223C12.3458 1.8416 12.4223 1.82011 12.5003 1.82011C12.5783 1.82011 12.6548 1.8416 12.7214 1.88223C12.788 1.92286 12.8421 1.98105 12.8778 2.05042L15.8621 7.84959L22.2996 8.89578C22.3766 8.90838 22.4486 8.94191 22.5077 8.9927C22.5669 9.04349 22.6109 9.10959 22.635 9.18375C22.6591 9.2579 22.6624 9.33726 22.6443 9.41313C22.6263 9.48899 22.5878 9.55848 22.533 9.6139Z" 
    fill="url(#paint0_linear_278_2165)"/>
  <path d="M22.533 9.6139L17.9397 14.2442L18.9341 20.69C18.9464 20.7672 18.9371 20.8463 18.9072 20.9186C18.8774 20.9908 18.8281 21.0534 18.7648 21.0993C18.7016 21.1453 18.6269 21.1728 18.5489 21.1789C18.471 21.185 18.3929 21.1694 18.3233 21.1338L12.5003 18.1962L6.67723 21.1339C6.60762 21.1694 6.52952 21.1851 6.45159 21.179C6.37365 21.1729 6.29892 21.1454 6.23568 21.0994C6.17243 21.0535 6.12314 20.9909 6.09327 20.9187C6.0634 20.8464 6.05411 20.7673 6.06644 20.6901L7.06082 14.2442L2.46761 9.61385C2.41276 9.55843 2.37422 9.48899 2.35621 9.41313C2.3382 9.33726 2.34142 9.2579 2.36551 9.18375C2.38961 9.10959 2.43364 9.04349 2.4928 8.9927C2.55196 8.94191 2.62396 8.90838 2.70091 8.89578L9.13846 7.84959L12.1228 2.05042C12.1585 1.98105 12.2126 1.92286 12.2792 1.88223C12.3458 1.8416 12.4223 1.82011 12.5003 1.82011C12.5783 1.82011 12.6548 1.8416 12.7214 1.88223C12.788 1.92286 12.8421 1.98105 12.8778 2.05042L15.8621 7.84959L22.2996 8.89578C22.3766 8.90838 22.4486 8.94191 22.5077 8.9927C22.5669 9.04349 22.6109 9.10959 22.635 9.18375C22.6591 9.2579 22.6624 9.33726 22.6443 9.41313C22.6263 9.48899 22.5878 9.55848 22.533 9.6139Z" 
    fill="url(#paint1_linear_278_2165)"/>
  <defs>
    <linearGradient id="paint0_linear_278_2165" x1="4.27152" y1="-19.7535" x2="32.1674" y2="-18.5882" gradientUnits="userSpaceOnUse">
      <stop stop-color="#EEBE5C"/>
      <stop offset="0.989583" stop-color="#C8414B"/>
    </linearGradient>
    <linearGradient id="paint1_linear_278_2165" x1="4.27152" y1="-19.7535" x2="32.1674" y2="-18.5882" gradientUnits="userSpaceOnUse">
      <stop stop-color="#EEBE5C"/>
      <stop offset="0.989583" stop-color="#C8414B"/>
    </linearGradient>
  </defs>
</svg>