<svg xmlns="http://www.w3.org/2000/svg" width="40" height="40" viewBox="0 0 40 40" fill="none">
  <g clip-path="url(#clip0_2_1159)">
  <path d="M9.33399 26.3335C7.12797 26.3335 5.33398 28.1275 5.33398 30.3335C5.33398 32.5395 7.12797 34.3335 9.33399 34.3335C11.54 34.3335 13.334 32.5395 13.334 30.3335C13.334 28.1275 11.5399 26.3335 9.33399 26.3335ZM9.33399 33.0001C7.86328 33.0001 6.66734 31.8041 6.66734 30.3335C6.66734 28.8628 7.86336 27.6669 9.33399 27.6669C10.8046 27.6669 12.0006 28.8629 12.0006 30.3335C12.0006 31.8041 10.8046 33.0001 9.33399 33.0001Z" fill="#292929"/>
  <path d="M32 26.3335C29.794 26.3335 28 28.1275 28 30.3335C28 32.5395 29.794 34.3335 32 34.3335C34.206 34.3335 36 32.5395 36 30.3335C36 28.1275 34.206 26.3335 32 26.3335ZM32 33.0001C30.5293 33.0001 29.3334 31.8041 29.3334 30.3335C29.3334 28.8628 30.5294 27.6669 32 27.6669C33.4707 27.6669 34.6666 28.8629 34.6666 30.3335C34.6666 31.8041 33.4707 33.0001 32 33.0001Z" fill="#292929"/>
  <path d="M39.8946 22.6394L33.8946 13.306C33.7719 13.1153 33.5606 13 33.3339 13H26.0006C25.632 13 25.334 13.2987 25.334 13.6666V30.3333C25.334 30.702 25.632 30.9999 26.0006 30.9999H28.6673V29.6666H26.6673V14.3334H32.9699L38.6673 23.196V29.6667H35.3339V31H39.3339C39.7026 31 40.0005 30.702 40.0005 30.3334V23C40.0006 22.8727 39.964 22.7466 39.8946 22.6394Z" fill="#292929"/>
  <path d="M29.3352 21.6665V16.9999H34.6686V15.6665H28.6686C28.2999 15.6665 28.002 15.9652 28.002 16.3331V22.3332C28.002 22.7018 28.2999 22.9998 28.6686 22.9998H38.6686V21.6664H29.3352V21.6665Z" fill="#292929"/>
  <path d="M26 8.3335H0.666641C0.298672 8.3335 0 8.63217 0 9.00014V30.3335C0 30.7022 0.298672 31.0001 0.666641 31.0001H6V29.6668H1.33336V9.66678H25.3334V29.6668H12.6666V31.0001H26C26.3687 31.0001 26.6666 30.7022 26.6666 30.3335V9.00014C26.6666 8.63217 26.3687 8.3335 26 8.3335Z" fill="#292929"/>
  <path d="M4.66602 27H0.666016V28.3334H4.66602V27Z" fill="#292929"/>
  <path d="M25.3333 27H14V28.3334H25.3333V27Z" fill="#292929"/>
  <path d="M39.3346 27H36.668V28.3334H39.3346V27Z" fill="#292929"/>
  <path d="M26.0013 11H2.66797V12.3334H26.0013V11Z" fill="#292929"/>
  <path d="M10.0013 29.6665H8.66797V30.9999H10.0013V29.6665Z" fill="#292929"/>
  <path d="M32.6673 29.6665H31.334V30.9999H32.6673V29.6665Z" fill="#292929"/>
  <path d="M12.0013 5.6665H2.66797V6.99986H12.0013V5.6665Z" fill="#292929"/>
  <path d="M1.33336 5.6665H0V6.99986H1.33336V5.6665Z" fill="#292929"/>
  </g>
  <defs>
  <clipPath id="clip0_2_1159">
  <rect width="40" height="40" fill="white"/>
  </clipPath>
  </defs>
</svg>