<svg width="26" height="26" fill="none" xmlns="http://www.w3.org/2000/svg"><path d="M15.61 6.003h-2.08c-2.65-.026-2.987 1.616-2.987 3.395v1.293h-1.17a.345.345 0 0 0-.374.233.349.349 0 0 0-.015.157v2.344a.348.348 0 0 0 .39.39h1.169v5.86a.352.352 0 0 0 .392.39h2.381c.23.027.416-.16.343-.39l.002-5.86h1.949a.346.346 0 0 0 .39-.39v-2.344a.35.35 0 0 0-.233-.375.345.345 0 0 0-.157-.015h-1.952l.003-1.172c.075-.5.075-.418.538-.39h1.394c.109-.025.224-.012.305-.09.081-.08.128-.187.1-.302V6.394a.347.347 0 0 0-.388-.39zm-.417 2.3l-.978-.037c-1.21 0-1.312.658-1.312 1.332L12.9 11.08a.417.417 0 0 0 .416.418h1.904v1.509h-1.902a.417.417 0 0 0-.417.417l-.001 5.86h-1.578v-5.859c0-.23-.157-.417-.387-.417H9.763v-1.51h1.172a.413.413 0 0 0 .294-.121c.078-.08.092-.186.092-.297V9.397c0-1.752.354-2.586 2.208-2.586h1.663v1.492z" fill="#fff"/><rect x=".5" y=".5" width="24.943" height="25" rx="4.5" stroke="#fff"/></svg>