<svg width="25" height="25" fill="none" xmlns="http://www.w3.org/2000/svg"><path d="M24.207 10.978L13.083.238a.835.835 0 0 0-1.165 0L.794 10.977a.839.839 0 0 0 .583 1.441h1.478v11.743c0 .463.376.838.839.838h5.87a.839.839 0 0 0 .84-.838v-6.71h4.193v6.71c0 .463.376.838.839.838h5.871a.839.839 0 0 0 .839-.838V12.42h1.478a.838.838 0 0 0 .583-1.442zm-2.061.603a.839.839 0 0 0-.839.838v11.743h-5.871v-6.71a.839.839 0 0 0-.839-.839h-4.193a.839.839 0 0 0-.84.839v6.71h-5.87V12.42a.839.839 0 0 0-.839-.84H1.377L12.5.84l11.128 10.74h-1.482z" fill="#292929"/></svg>